<?xml version="1.0" encoding="UTF-8" standalone="no"?><!DOCTYPE svg PUBLIC "-//W3C//DTD SVG 1.1//EN" "http://www.w3.org/Graphics/SVG/1.1/DTD/svg11.dtd"><svg width="100%" height="100%" viewBox="0 0 3000 3000" version="1.1" xmlns="http://www.w3.org/2000/svg" xmlns:xlink="http://www.w3.org/1999/xlink" xml:space="preserve" xmlns:serif="http://www.serif.com/" style="fill-rule:evenodd;clip-rule:evenodd;stroke-linejoin:round;stroke-miterlimit:2;"><g><path d="M2641.67,1394.86c-0,-188.866 -153.336,-342.202 -342.203,-342.202l-1598.93,0c-188.867,0 -342.203,153.336 -342.203,342.202l0,904.609c0,188.867 153.336,342.203 342.203,342.203l1598.93,-0c188.867,-0 342.203,-153.336 342.203,-342.203l-0,-904.609Z" style="fill:#424242;"/><rect x="866.259" y="605.306" width="479.966" height="894.694" style="fill:#424242;"/><path d="M1677.08,472.233c-0,-62.863 -51.037,-113.9 -113.9,-113.9l-913.867,0c-62.863,0 -113.9,51.037 -113.9,113.9l0,301.095c0,62.863 51.037,113.9 113.9,113.9l913.867,-0c62.863,-0 113.9,-51.037 113.9,-113.9l-0,-301.095Z" style="fill:#424242;"/><rect x="653.07" y="467.52" width="906.344" height="310.522"/><text x="771.142px" y="732.217px" style="font-family:'SevenSegmentRegular', 'Seven Segment';font-size:312.587px;fill:#fff;">32.00</text><g><path d="M968.381,1468.36c-0,-58.188 -47.242,-105.429 -105.43,-105.429l-210.859,0c-58.188,0 -105.429,47.241 -105.429,105.429l-0,210.859c-0,58.188 47.241,105.43 105.429,105.43l210.859,-0c58.188,-0 105.43,-47.242 105.43,-105.43l-0,-210.859Z" style="fill:#2196f3;"/><path d="M968.381,2015.1c-0,-58.188 -47.242,-105.429 -105.43,-105.429l-210.859,0c-58.188,0 -105.429,47.241 -105.429,105.429l-0,210.859c-0,58.188 47.241,105.43 105.429,105.43l210.859,-0c58.188,-0 105.43,-47.242 105.43,-105.43l-0,-210.859Z" style="fill:#2196f3;"/></g><g><path d="M1463.37,1468.36c0,-58.188 -47.241,-105.429 -105.429,-105.429l-210.859,0c-58.188,0 -105.43,47.241 -105.43,105.429l0,210.859c0,58.188 47.242,105.43 105.43,105.43l210.859,-0c58.188,-0 105.429,-47.242 105.429,-105.43l0,-210.859Z" style="fill:#2196f3;"/><path d="M1463.37,2015.1c0,-58.188 -47.241,-105.429 -105.429,-105.429l-210.859,0c-58.188,0 -105.43,47.241 -105.43,105.429l0,210.859c0,58.188 47.242,105.43 105.43,105.43l210.859,-0c58.188,-0 105.429,-47.242 105.429,-105.43l0,-210.859Z" style="fill:#2196f3;"/></g><g><path d="M1958.35,1468.36c-0,-58.188 -47.242,-105.429 -105.43,-105.429l-210.859,0c-58.188,0 -105.429,47.241 -105.429,105.429l-0,210.859c-0,58.188 47.241,105.43 105.429,105.43l210.859,-0c58.188,-0 105.43,-47.242 105.43,-105.43l-0,-210.859Z" style="fill:#2196f3;"/><path d="M1958.35,2015.1c-0,-58.188 -47.242,-105.429 -105.43,-105.429l-210.859,0c-58.188,0 -105.429,47.241 -105.429,105.429l-0,210.859c-0,58.188 47.241,105.43 105.429,105.43l210.859,-0c58.188,-0 105.43,-47.242 105.43,-105.43l-0,-210.859Z" style="fill:#2196f3;"/></g><g><path d="M2453.34,1468.36c0,-58.188 -47.241,-105.429 -105.429,-105.429l-210.859,0c-58.188,0 -105.43,47.241 -105.43,105.429l0,210.859c0,58.188 47.242,105.43 105.43,105.43l210.859,-0c58.188,-0 105.429,-47.242 105.429,-105.43l0,-210.859Z" style="fill:#2196f3;"/><path d="M2453.34,2015.1c0,-58.188 -47.241,-105.429 -105.429,-105.429l-210.859,0c-58.188,0 -105.43,47.241 -105.43,105.429l0,210.859c0,58.188 47.242,105.43 105.43,105.43l210.859,-0c58.188,-0 105.429,-47.242 105.429,-105.43l0,-210.859Z" style="fill:#2196f3;"/></g></g></svg>